<svg width="576" height="119" viewBox="0 0 576 119" fill="none" xmlns="http://www.w3.org/2000/svg">
<path d="M0.227539 6.5127C2.74837 7.1429 5.15104 7.61556 7.43555 7.93066C9.72005 8.24577 11.7288 8.4821 13.4619 8.63965C15.5101 8.87598 17.4007 8.95475 19.1338 8.87598C21.3395 8.87598 24.0967 8.67904 27.4053 8.28516C30.7926 7.89128 34.2588 7.53678 37.8037 7.22168C41.3486 6.8278 44.736 6.59147 47.9658 6.5127C51.2744 6.35514 53.9528 6.55208 56.001 7.10352C58.0492 7.57617 60.1367 8.32454 62.2637 9.34863C64.4694 10.2939 66.4782 11.515 68.29 13.0117C70.1019 14.4297 71.5986 16.1234 72.7803 18.0928C73.9619 19.9834 74.6315 22.1497 74.7891 24.5918C74.7103 27.6641 74.0013 30.5394 72.6621 33.2178C71.5592 35.5023 69.708 37.8656 67.1084 40.3076C64.5088 42.6709 60.7669 44.4827 55.8828 45.7432C58.3249 46.0583 60.4124 46.6097 62.1455 47.3975C63.9574 48.1064 65.4935 48.973 66.7539 49.9971C68.0931 50.9424 69.1566 52.0059 69.9443 53.1875C70.8109 54.3691 71.4805 55.5508 71.9531 56.7324C73.1348 59.4896 73.6862 62.5618 73.6074 65.9492C73.1348 70.3607 72.2288 73.8662 70.8896 76.4658C69.6292 79.0654 68.1719 81.0742 66.5176 82.4922C64.8633 83.9102 63.1696 84.8949 61.4365 85.4463C59.7035 85.9977 58.1279 86.431 56.71 86.7461C55.292 87.0612 53.5589 87.2188 51.5107 87.2188C49.4626 87.2188 47.2568 87.1794 44.8936 87.1006C42.609 86.943 40.2458 86.8249 37.8037 86.7461C35.3617 86.5885 33.0378 86.5885 30.832 86.7461C29.0202 86.9036 26.8145 87.0612 24.2148 87.2188C22.0091 87.3763 19.252 87.5732 15.9434 87.8096C12.6348 87.9671 8.77474 88.1641 4.36328 88.4004C5.22982 87.7702 5.9388 87.0612 6.49023 86.2734C7.12044 85.4069 7.63249 84.6585 8.02637 84.0283C8.42025 83.2406 8.77474 82.4922 9.08984 81.7832C9.32617 81.153 9.52311 79.4199 9.68066 76.584C9.83822 73.748 9.95638 70.3607 10.0352 66.4219C10.1139 62.4043 10.1533 58.111 10.1533 53.542C10.2321 48.8942 10.1927 44.4434 10.0352 40.1895C9.95638 35.8568 9.79883 32.0361 9.5625 28.7275C9.40495 25.3402 9.16862 22.8981 8.85352 21.4014C8.38086 19.7471 7.75065 18.0534 6.96289 16.3203C6.33268 14.8236 5.42676 13.2087 4.24512 11.4756C3.14225 9.74251 1.80306 8.08822 0.227539 6.5127ZM25.1602 18.5654C25.1602 18.8805 25.1995 19.944 25.2783 21.7559C25.3571 23.3314 25.4359 25.7734 25.5146 29.082C25.6722 32.3118 25.8691 36.9202 26.1055 42.9072C28.0749 43.7738 30.0049 44.2464 31.8955 44.3252C33.7861 44.3252 35.4798 44.2464 36.9766 44.0889C38.7096 43.8525 40.3639 43.4587 41.9395 42.9072C44.0664 42.0407 45.7207 40.6227 46.9023 38.6533C48.1628 36.6839 48.9899 34.6357 49.3838 32.5088C49.8564 30.3031 49.9746 28.2549 49.7383 26.3643C49.502 24.3949 48.9899 22.9769 48.2021 22.1104C46.7054 20.7712 44.8542 19.6683 42.6484 18.8018C40.7578 18.0928 38.3551 17.6201 35.4404 17.3838C32.6045 17.0687 29.1777 17.4626 25.1602 18.5654ZM24.5693 74.5752C27.484 76.0719 30.0443 77.0566 32.25 77.5293C34.4557 78.002 36.307 78.2383 37.8037 78.2383C39.5368 78.2383 41.0335 78.002 42.2939 77.5293C43.7907 76.8203 45.248 75.875 46.666 74.6934C48.1628 73.4329 49.2656 71.9756 49.9746 70.3213C50.7624 68.5882 51.0775 66.6976 50.9199 64.6494C50.7624 62.5225 49.8564 60.1986 48.2021 57.6777C46.7054 55.8659 44.8936 54.4479 42.7666 53.4238C40.876 52.5573 38.4733 52.0059 35.5586 51.7695C32.7227 51.5332 29.2171 52.2028 25.042 53.7783L24.5693 74.5752ZM79.043 34.3994C80.5397 34.4782 81.8789 34.5176 83.0605 34.5176C84.321 34.4388 85.3844 34.36 86.251 34.2812C87.2751 34.2025 88.181 34.1237 88.9688 34.0449C90.1504 33.8874 91.3714 33.6904 92.6318 33.4541C93.7347 33.2965 94.877 33.0996 96.0586 32.8633C97.319 32.5482 98.54 32.1937 99.7217 31.7998C99.249 32.9814 98.8551 34.0055 98.54 34.8721C98.2249 35.7386 97.9886 36.487 97.8311 37.1172C97.5947 37.8262 97.4766 38.417 97.4766 38.8896C97.3978 39.4411 97.3584 40.1107 97.3584 40.8984C97.2796 42.2376 97.2796 44.404 97.3584 47.3975C101.455 43.8525 104.882 41.0954 107.639 39.126C110.475 37.1566 112.72 35.6204 114.374 34.5176C116.343 33.2572 117.88 32.43 118.982 32.0361C121.897 31.5635 124.457 32.2331 126.663 34.0449C127.608 34.8327 128.514 35.8962 129.381 37.2354C130.247 38.4958 130.996 40.1895 131.626 42.3164C132.256 44.4434 132.729 47.0036 133.044 49.9971C133.359 52.9118 133.398 56.4173 133.162 60.5137C131.508 60.6712 130.011 60.8288 128.672 60.9863C127.411 61.1439 126.348 61.262 125.481 61.3408C124.457 61.4984 123.512 61.5771 122.646 61.5771L119.455 61.9316C118.352 62.0892 116.974 62.2467 115.319 62.4043C113.744 62.4831 111.814 62.6406 109.529 62.877C112.838 60.1986 114.965 57.8747 115.91 55.9053C116.934 53.8571 117.368 52.1634 117.21 50.8242C117.052 49.3275 116.343 48.0277 115.083 46.9248C113.586 46.0583 111.971 45.7432 110.238 45.9795C108.742 46.137 107.008 46.8066 105.039 47.9883C103.07 49.1699 100.982 51.3757 98.7764 54.6055C98.9339 59.6471 99.0915 63.8223 99.249 67.1309C99.4854 70.4395 99.6823 73.1178 99.8398 75.166C100.076 77.5293 100.273 79.3805 100.431 80.7197C100.667 81.9014 101.14 83.1618 101.849 84.501C102.4 85.6038 103.188 86.8249 104.212 88.1641C105.236 89.5033 106.575 90.8424 108.229 92.1816C104.763 92.0241 101.927 92.0241 99.7217 92.1816C98.3825 92.2604 97.2008 92.3392 96.1768 92.418C95.0739 92.5755 93.8923 92.7331 92.6318 92.8906C91.529 93.0482 90.2292 93.2057 88.7324 93.3633C87.3145 93.5996 85.7389 93.8359 84.0059 94.0723C84.6361 93.2057 85.1481 92.1816 85.542 91C85.9359 89.8971 86.251 88.8337 86.4873 87.8096C86.8024 86.6279 87.0387 85.4069 87.1963 84.1465C87.2751 83.0436 87.3145 81.3893 87.3145 79.1836C87.3932 76.9779 87.3538 74.4964 87.1963 71.7393C87.1175 68.9033 86.9993 65.9886 86.8418 62.9951C86.6842 59.9229 86.4873 57.0475 86.251 54.3691C86.0146 51.6908 85.7389 49.3669 85.4238 47.3975C85.1875 45.3493 84.9118 43.9313 84.5967 43.1436C84.2028 42.1982 83.7301 41.2529 83.1787 40.3076C82.7061 39.4411 82.1152 38.5352 81.4062 37.5898C80.6973 36.5658 79.9095 35.5023 79.043 34.3994ZM146.987 43.1436C147.381 42.6709 147.618 41.8044 147.696 40.5439C147.854 39.2048 148.169 37.708 148.642 36.0537C149.193 34.3994 150.099 32.6663 151.359 30.8545C152.62 29.0426 154.668 27.349 157.504 25.7734C160.261 24.1979 162.939 23.2526 165.539 22.9375C168.139 22.6224 170.62 22.7406 172.983 23.292C175.347 23.8434 177.552 24.71 179.601 25.8916C181.728 27.0732 183.658 28.373 185.391 29.791C186.572 30.7363 187.518 32.1149 188.227 33.9268C188.936 35.6598 189.487 37.6292 189.881 39.835C190.275 42.0407 190.55 44.3646 190.708 46.8066C190.944 49.1699 191.102 51.4938 191.181 53.7783C191.259 55.984 191.299 58.0322 191.299 59.9229C191.378 61.7347 191.535 63.2314 191.771 64.4131C192.087 66.1462 192.638 67.6429 193.426 68.9033C194.214 70.085 195.08 71.109 196.025 71.9756C196.971 72.7633 197.916 73.3936 198.861 73.8662C199.807 74.3389 200.634 74.6934 201.343 74.9297C201.815 75.166 202.249 75.3236 202.643 75.4023C203.43 75.7174 203.982 75.7174 204.297 75.4023C203.824 76.5052 203.391 77.4505 202.997 78.2383C202.603 79.026 202.288 79.6956 202.052 80.2471C201.737 80.8773 201.461 81.3893 201.225 81.7832C200.988 82.2559 200.713 82.6891 200.397 83.083C200.161 83.4769 199.846 83.9102 199.452 84.3828C199.058 84.8555 198.664 85.3675 198.271 85.9189C197.246 85.5251 196.262 85.0524 195.316 84.501C194.45 83.9495 193.662 83.4375 192.953 82.9648C192.087 82.4134 191.299 81.862 190.59 81.3105C189.881 80.7591 189.211 80.1289 188.581 79.4199C188.03 78.7897 187.439 78.1201 186.809 77.4111C186.257 76.7021 185.785 75.9144 185.391 75.0479C184.918 76.0719 183.776 77.5293 181.964 79.4199C180.231 81.3105 177.946 83.0436 175.11 84.6191C172.274 86.1159 168.966 87.1794 165.185 87.8096C161.482 88.4398 157.386 88.0065 152.896 86.5098C150.926 85.8796 149.075 84.9736 147.342 83.792C145.609 82.5316 144.112 81.0348 142.852 79.3018C141.67 77.5687 140.803 75.5993 140.252 73.3936C139.779 71.109 139.819 68.5882 140.37 65.8311C140.922 63.0739 141.906 60.75 143.324 58.8594C144.742 56.9688 146.436 55.4326 148.405 54.251C150.375 53.0693 152.58 52.1634 155.022 51.5332C157.465 50.903 159.985 50.4697 162.585 50.2334C164.633 50.1546 166.681 50.2728 168.729 50.5879C170.463 50.903 172.274 51.4938 174.165 52.3604C176.056 53.1481 177.671 54.3691 179.01 56.0234C178.931 51.8483 178.773 48.5397 178.537 46.0977C178.38 43.5768 178.222 41.6468 178.064 40.3076C177.749 38.7321 177.474 37.6292 177.237 36.999C176.843 36.4476 176.41 35.8174 175.938 35.1084C175.544 34.3994 175.032 33.7692 174.401 33.2178C173.771 32.5876 172.983 32.0755 172.038 31.6816C171.093 31.2878 169.99 31.1302 168.729 31.209C167.39 31.2878 166.327 31.6423 165.539 32.2725C164.751 32.9027 164.121 33.651 163.648 34.5176C163.255 35.3053 163.018 36.1719 162.939 37.1172C162.861 38.0625 162.9 38.8896 163.058 39.5986C163.215 40.0713 163.451 40.5833 163.767 41.1348C164.082 41.6074 164.515 42.1195 165.066 42.6709C165.618 43.2223 166.366 43.695 167.312 44.0889C165.5 44.3252 163.885 44.5221 162.467 44.6797C161.049 44.7585 159.828 44.8766 158.804 45.0342C157.622 45.1917 156.598 45.3099 155.731 45.3887C154.865 45.4674 153.841 45.625 152.659 45.8613C151.635 46.0189 150.375 46.2158 148.878 46.4521C147.381 46.6885 145.648 47.0036 143.679 47.3975C144.151 46.846 144.585 46.334 144.979 45.8613C145.372 45.3099 145.727 44.8372 146.042 44.4434C146.357 43.9707 146.672 43.5374 146.987 43.1436ZM164.712 57.2051C163.294 57.2839 161.876 57.6383 160.458 58.2686C159.04 58.82 157.78 59.6471 156.677 60.75C155.574 61.7741 154.629 62.9951 153.841 64.4131C153.132 65.7523 152.777 67.249 152.777 68.9033C152.777 70.5576 153.171 72.015 153.959 73.2754C154.826 74.457 155.928 75.4417 157.268 76.2295C158.686 77.0173 160.182 77.4899 161.758 77.6475C163.412 77.805 165.027 77.6475 166.603 77.1748C168.099 76.6234 169.517 75.7568 170.856 74.5752C172.196 73.3148 173.338 71.9756 174.283 70.5576C175.229 69.0609 175.898 67.6035 176.292 66.1855C176.686 64.6888 176.725 63.4678 176.41 62.5225C175.78 60.4743 174.362 59.0563 172.156 58.2686C169.951 57.402 167.469 57.0475 164.712 57.2051ZM203.115 38.1807L224.857 38.417C223.597 43.2223 222.652 47.3187 222.021 50.7061C221.47 54.0934 221.116 56.9294 220.958 59.2139C220.643 61.8135 220.564 64.0192 220.722 65.8311C220.958 67.4854 221.352 69.2578 221.903 71.1484C222.376 72.724 223.085 74.5358 224.03 76.584C224.976 78.6322 226.236 80.6803 227.812 82.7285C226.866 82.4134 225.842 82.1771 224.739 82.0195C223.636 81.862 222.612 81.7438 221.667 81.665C220.564 81.5863 219.461 81.5863 218.358 81.665C217.256 81.7438 216.035 81.862 214.695 82.0195C213.592 82.1771 212.253 82.374 210.678 82.6104C209.102 82.8467 207.448 83.1618 205.715 83.5557C206.896 80.0107 207.802 76.9385 208.433 74.3389C209.142 71.7393 209.654 69.5729 209.969 67.8398C210.284 65.7917 210.481 64.1374 210.56 62.877C210.56 61.3014 210.56 59.529 210.56 57.5596C210.56 55.5114 210.56 53.542 210.56 51.6514C210.56 49.7607 210.52 48.1064 210.441 46.6885C210.363 45.1917 210.205 44.2464 209.969 43.8525L208.787 42.6709C208.314 42.277 207.605 41.7256 206.66 41.0166C205.794 40.2288 204.612 39.2835 203.115 38.1807ZM211.505 19.9834C213.159 19.1169 214.813 18.8805 216.468 19.2744C218.201 19.6683 219.54 20.4167 220.485 21.5195C221.431 22.6224 221.746 23.9222 221.431 25.4189C221.194 26.9157 219.934 28.373 217.649 29.791C215.365 31.1302 213.356 31.6029 211.623 31.209C209.89 30.8151 208.669 29.988 207.96 28.7275C207.251 27.4671 207.133 26.0098 207.605 24.3555C208.078 22.6224 209.378 21.165 211.505 19.9834ZM234.783 94.3086C235.571 93.127 236.201 92.0241 236.674 91C237.146 89.9759 237.54 89.1094 237.855 88.4004C238.171 87.5339 238.407 86.7461 238.564 86.0371C238.643 85.5645 238.683 84.1859 238.683 81.9014C238.683 79.6169 238.604 76.7415 238.446 73.2754C238.368 69.8092 238.249 65.9098 238.092 61.5771C238.013 57.2445 237.855 52.833 237.619 48.3428C237.462 43.8525 237.265 39.4805 237.028 35.2266C236.871 30.9727 236.713 27.152 236.556 23.7646C236.398 20.2985 236.241 17.4626 236.083 15.2568C235.925 13.0511 235.807 11.7907 235.729 11.4756C235.571 11.0029 235.295 10.5303 234.901 10.0576C234.114 9.1123 232.774 8.20638 230.884 7.33984C234.901 6.31576 237.974 5.48861 240.101 4.8584C241.361 4.54329 242.464 4.22819 243.409 3.91309C244.276 3.59798 245.142 3.28288 246.009 2.96777C246.718 2.65267 247.506 2.29818 248.372 1.9043C249.239 1.43164 250.026 0.919596 250.735 0.368164C250.341 2.65267 250.026 4.8584 249.79 6.98535C249.554 9.1123 249.357 11.0817 249.199 12.8936C249.042 14.9417 248.963 16.9111 248.963 18.8018C248.569 22.6618 248.333 26.8763 248.254 31.4453C248.254 35.9355 248.293 40.5046 248.372 45.1523C248.451 49.8001 248.608 54.3298 248.845 58.7412C249.081 63.1527 249.317 67.1702 249.554 70.7939C249.869 74.3389 250.145 77.3717 250.381 79.8926C250.696 82.3346 250.932 83.9102 251.09 84.6191C251.405 85.8008 251.72 86.943 252.035 88.0459C252.35 88.9912 252.705 89.9759 253.099 91C253.493 92.1029 253.965 92.9694 254.517 93.5996H243.055C242.031 93.5996 241.046 93.639 240.101 93.7178C239.234 93.7965 238.328 93.8753 237.383 93.9541C236.438 94.0329 235.571 94.151 234.783 94.3086ZM261.488 94.3086C262.276 93.127 262.906 92.0241 263.379 91C263.852 89.9759 264.245 89.1094 264.561 88.4004C264.876 87.5339 265.112 86.7461 265.27 86.0371C265.348 85.5645 265.388 84.1859 265.388 81.9014C265.388 79.6169 265.309 76.7415 265.151 73.2754C265.073 69.8092 264.954 65.9098 264.797 61.5771C264.718 57.2445 264.561 52.833 264.324 48.3428C264.167 43.8525 263.97 39.4805 263.733 35.2266C263.576 30.9727 263.418 27.152 263.261 23.7646C263.103 20.2985 262.946 17.4626 262.788 15.2568C262.631 13.0511 262.512 11.7907 262.434 11.4756C262.276 11.0029 262 10.5303 261.606 10.0576C260.819 9.1123 259.479 8.20638 257.589 7.33984C261.606 6.31576 264.679 5.48861 266.806 4.8584C268.066 4.54329 269.169 4.22819 270.114 3.91309C270.981 3.59798 271.847 3.28288 272.714 2.96777C273.423 2.65267 274.211 2.29818 275.077 1.9043C275.944 1.43164 276.731 0.919596 277.44 0.368164C277.047 2.65267 276.731 4.8584 276.495 6.98535C276.259 9.1123 276.062 11.0817 275.904 12.8936C275.747 14.9417 275.668 16.9111 275.668 18.8018C275.274 22.6618 275.038 26.8763 274.959 31.4453C274.959 35.9355 274.998 40.5046 275.077 45.1523C275.156 49.8001 275.313 54.3298 275.55 58.7412C275.786 63.1527 276.022 67.1702 276.259 70.7939C276.574 74.3389 276.85 77.3717 277.086 79.8926C277.401 82.3346 277.637 83.9102 277.795 84.6191C278.11 85.8008 278.425 86.943 278.74 88.0459C279.055 88.9912 279.41 89.9759 279.804 91C280.198 92.1029 280.67 92.9694 281.222 93.5996H269.76C268.736 93.5996 267.751 93.639 266.806 93.7178C265.939 93.7965 265.033 93.8753 264.088 93.9541C263.143 94.0329 262.276 94.151 261.488 94.3086ZM316.198 71.9756C318.404 71.9756 320.452 71.7393 322.343 71.2666C323.918 70.8727 325.415 70.2425 326.833 69.376C328.33 68.4307 329.314 67.0521 329.787 65.2402C331.363 65.5553 332.702 65.8311 333.805 66.0674C334.908 66.2249 335.853 66.3825 336.641 66.54C337.507 66.7764 338.256 66.9339 338.886 67.0127C339.516 67.1702 340.264 67.3278 341.131 67.4854C341.919 67.6429 342.864 67.8398 343.967 68.0762C345.148 68.2337 346.527 68.4701 348.103 68.7852C346.921 68.6276 345.7 68.7458 344.439 69.1396C343.258 69.5335 342.116 69.9668 341.013 70.4395C339.752 70.9909 338.571 71.6605 337.468 72.4482C336.759 72.9209 335.932 73.6299 334.986 74.5752C334.12 75.5205 332.859 76.4264 331.205 77.293C329.551 78.1595 327.345 78.9079 324.588 79.5381C321.91 80.0895 318.443 80.2865 314.189 80.1289C309.069 79.9714 304.776 79.0654 301.31 77.4111C297.843 75.6781 295.047 73.5905 292.92 71.1484C290.793 68.6276 289.257 65.9098 288.312 62.9951C287.366 60.0804 286.854 57.3626 286.775 54.8418C286.697 52.321 287.445 49.682 289.021 46.9248C290.596 44.1676 292.802 41.6468 295.638 39.3623C298.552 37.0778 302.058 35.2266 306.154 33.8086C310.251 32.3118 314.741 31.5635 319.625 31.5635C322.461 31.5635 325.061 31.918 327.424 32.627C329.866 33.2572 332.072 34.1237 334.041 35.2266C336.089 36.3294 337.862 37.5898 339.358 39.0078C340.855 40.347 342.116 41.7256 343.14 43.1436C344.164 44.6403 345.03 46.2158 345.739 47.8701C346.369 49.2881 346.882 50.903 347.275 52.7148C347.669 54.5267 347.787 56.3779 347.63 58.2686C341.643 58.4261 336.798 58.5443 333.096 58.623C329.472 58.7018 326.636 58.7412 324.588 58.7412H319.271H315.253C313.835 58.7412 311.984 58.7806 309.699 58.8594C307.415 58.9382 304.618 59.0563 301.31 59.2139C301.703 62.3649 302.688 64.807 304.264 66.54C305.918 68.1943 307.651 69.4548 309.463 70.3213C311.511 71.2666 313.756 71.818 316.198 71.9756ZM305.563 50.7061C308.084 50.8636 310.172 50.9818 311.826 51.0605C313.559 51.1393 314.977 51.2181 316.08 51.2969C317.262 51.3757 318.207 51.415 318.916 51.415H321.87C323.84 51.415 327.503 51.2969 332.859 51.0605C332.623 47.5944 331.875 44.9554 330.614 43.1436C329.433 41.3317 328.172 39.9925 326.833 39.126C325.257 38.1807 323.524 37.6292 321.634 37.4717C316.513 37.5505 312.693 38.6139 310.172 40.6621C307.73 42.7103 306.194 46.0583 305.563 50.7061Z" fill="#2575FF"/>
<path d="M346.33 6.39453C349.324 7.10352 352.002 7.65495 354.365 8.04883C356.807 8.36393 358.855 8.60026 360.51 8.75781C362.479 8.99414 364.212 9.07292 365.709 8.99414C367.6 8.91536 369.963 8.63965 372.799 8.16699C375.635 7.69434 378.628 7.22168 381.779 6.74902C384.93 6.27637 388.042 5.88249 391.114 5.56738C394.187 5.25228 396.865 5.21289 399.149 5.44922C401.434 5.68555 403.837 6.23698 406.357 7.10352C408.878 7.89128 411.242 8.99414 413.447 10.4121C415.653 11.7513 417.544 13.4056 419.119 15.375C420.773 17.3444 421.798 19.6289 422.191 22.2285C422.585 24.7493 422.349 27.4671 421.482 30.3818C420.616 33.2178 419.237 36.0143 417.347 38.7715C415.456 41.4499 413.093 43.9313 410.257 46.2158C407.421 48.5003 404.27 50.3516 400.804 51.7695C398.047 52.7936 395.053 53.5814 391.823 54.1328C389.066 54.6055 385.836 54.9206 382.134 55.0781C378.51 55.1569 374.65 54.763 370.554 53.8965C370.002 56.181 369.687 58.3079 369.608 60.2773C369.608 62.168 369.687 63.8617 369.845 65.3584C370.081 67.0915 370.396 68.667 370.79 70.085C371.263 71.5029 371.854 73.1572 372.562 75.0479C373.193 76.6234 373.902 78.5534 374.689 80.8379C375.556 83.0436 376.58 85.5251 377.762 88.2822C376.344 88.2822 374.965 88.3216 373.626 88.4004C372.287 88.4004 371.066 88.4398 369.963 88.5186C368.702 88.5973 367.521 88.6761 366.418 88.7549C365.158 88.8337 363.74 88.9912 362.164 89.2275C360.825 89.3851 359.131 89.6214 357.083 89.9365C355.114 90.2516 352.868 90.6455 350.348 91.1182C352.002 88.7549 353.302 86.5885 354.247 84.6191C355.271 82.571 356.02 80.7985 356.492 79.3018C357.044 77.5687 357.398 75.9932 357.556 74.5752C357.634 73.3936 357.634 71.306 357.556 68.3125C357.556 65.319 357.516 61.8529 357.438 57.9141C357.359 53.9753 357.241 49.8395 357.083 45.5068C356.925 41.1742 356.729 37.1172 356.492 33.3359C356.256 29.4759 355.98 26.1673 355.665 23.4102C355.429 20.653 355.192 18.8411 354.956 17.9746C354.641 16.9505 354.09 15.8477 353.302 14.666C352.672 13.6419 351.766 12.4603 350.584 11.1211C349.481 9.70312 348.063 8.1276 346.33 6.39453ZM370.79 29.6729C370.711 30.4606 370.672 31.2878 370.672 32.1543C370.672 33.8086 370.79 35.9355 371.026 38.5352C371.578 39.8743 372.247 40.9772 373.035 41.8438C373.902 42.7103 374.808 43.3799 375.753 43.8525C376.777 44.3252 377.801 44.6403 378.825 44.7979C379.849 44.9554 380.873 45.0342 381.897 45.0342C384.261 44.9554 386.742 44.404 389.342 43.3799C392.808 41.8831 395.25 39.7562 396.668 36.999C398.086 34.2419 398.834 31.4059 398.913 28.4912C398.992 25.5765 398.48 22.8981 397.377 20.4561C396.353 18.014 395.092 16.3597 393.596 15.4932C392.335 14.9417 390.72 14.7054 388.751 14.7842C387.018 14.863 384.852 15.2962 382.252 16.084C379.652 16.8717 376.462 18.2897 372.681 20.3379C372.287 21.7559 371.972 23.0163 371.735 24.1191C371.499 25.222 371.302 26.2067 371.145 27.0732C370.987 28.0186 370.869 28.8851 370.79 29.6729ZM425.618 94.3086C426.406 93.127 427.036 92.0241 427.509 91C427.981 89.9759 428.375 89.1094 428.69 88.4004C429.006 87.5339 429.242 86.7461 429.399 86.0371C429.478 85.5645 429.518 84.1859 429.518 81.9014C429.518 79.6169 429.439 76.7415 429.281 73.2754C429.202 69.8092 429.084 65.9098 428.927 61.5771C428.848 57.2445 428.69 52.833 428.454 48.3428C428.297 43.8525 428.1 39.4805 427.863 35.2266C427.706 30.9727 427.548 27.152 427.391 23.7646C427.233 20.2985 427.076 17.4626 426.918 15.2568C426.76 13.0511 426.642 11.7907 426.563 11.4756C426.406 11.0029 426.13 10.5303 425.736 10.0576C424.949 9.1123 423.609 8.20638 421.719 7.33984C425.736 6.31576 428.809 5.48861 430.936 4.8584C432.196 4.54329 433.299 4.22819 434.244 3.91309C435.111 3.59798 435.977 3.28288 436.844 2.96777C437.553 2.65267 438.34 2.29818 439.207 1.9043C440.074 1.43164 440.861 0.919596 441.57 0.368164C441.176 2.65267 440.861 4.8584 440.625 6.98535C440.389 9.1123 440.192 11.0817 440.034 12.8936C439.877 14.9417 439.798 16.9111 439.798 18.8018C439.404 22.6618 439.168 26.8763 439.089 31.4453C439.089 35.9355 439.128 40.5046 439.207 45.1523C439.286 49.8001 439.443 54.3298 439.68 58.7412C439.916 63.1527 440.152 67.1702 440.389 70.7939C440.704 74.3389 440.979 77.3717 441.216 79.8926C441.531 82.3346 441.767 83.9102 441.925 84.6191C442.24 85.8008 442.555 86.943 442.87 88.0459C443.185 88.9912 443.54 89.9759 443.934 91C444.327 92.1029 444.8 92.9694 445.352 93.5996H433.89C432.866 93.5996 431.881 93.639 430.936 93.7178C430.069 93.7965 429.163 93.8753 428.218 93.9541C427.272 94.0329 426.406 94.151 425.618 94.3086ZM458.468 43.1436C458.862 42.6709 459.098 41.8044 459.177 40.5439C459.334 39.2048 459.649 37.708 460.122 36.0537C460.674 34.3994 461.579 32.6663 462.84 30.8545C464.1 29.0426 466.148 27.349 468.984 25.7734C471.742 24.1979 474.42 23.2526 477.02 22.9375C479.619 22.6224 482.101 22.7406 484.464 23.292C486.827 23.8434 489.033 24.71 491.081 25.8916C493.208 27.0732 495.138 28.373 496.871 29.791C498.053 30.7363 498.998 32.1149 499.707 33.9268C500.416 35.6598 500.967 37.6292 501.361 39.835C501.755 42.0407 502.031 44.3646 502.188 46.8066C502.425 49.1699 502.582 51.4938 502.661 53.7783C502.74 55.984 502.779 58.0322 502.779 59.9229C502.858 61.7347 503.016 63.2314 503.252 64.4131C503.567 66.1462 504.118 67.6429 504.906 68.9033C505.694 70.085 506.561 71.109 507.506 71.9756C508.451 72.7633 509.396 73.3936 510.342 73.8662C511.287 74.3389 512.114 74.6934 512.823 74.9297C513.296 75.166 513.729 75.3236 514.123 75.4023C514.911 75.7174 515.462 75.7174 515.777 75.4023C515.305 76.5052 514.871 77.4505 514.478 78.2383C514.084 79.026 513.769 79.6956 513.532 80.2471C513.217 80.8773 512.941 81.3893 512.705 81.7832C512.469 82.2559 512.193 82.6891 511.878 83.083C511.642 83.4769 511.326 83.9102 510.933 84.3828C510.539 84.8555 510.145 85.3675 509.751 85.9189C508.727 85.5251 507.742 85.0524 506.797 84.501C505.93 83.9495 505.143 83.4375 504.434 82.9648C503.567 82.4134 502.779 81.862 502.07 81.3105C501.361 80.7591 500.692 80.1289 500.062 79.4199C499.51 78.7897 498.919 78.1201 498.289 77.4111C497.738 76.7021 497.265 75.9144 496.871 75.0479C496.398 76.0719 495.256 77.5293 493.444 79.4199C491.711 81.3105 489.427 83.0436 486.591 84.6191C483.755 86.1159 480.446 87.1794 476.665 87.8096C472.963 88.4398 468.866 88.0065 464.376 86.5098C462.407 85.8796 460.555 84.9736 458.822 83.792C457.089 82.5316 455.592 81.0348 454.332 79.3018C453.15 77.5687 452.284 75.5993 451.732 73.3936C451.26 71.109 451.299 68.5882 451.851 65.8311C452.402 63.0739 453.387 60.75 454.805 58.8594C456.223 56.9688 457.916 55.4326 459.886 54.251C461.855 53.0693 464.061 52.1634 466.503 51.5332C468.945 50.903 471.466 50.4697 474.065 50.2334C476.114 50.1546 478.162 50.2728 480.21 50.5879C481.943 50.903 483.755 51.4938 485.646 52.3604C487.536 53.1481 489.151 54.3691 490.49 56.0234C490.411 51.8483 490.254 48.5397 490.018 46.0977C489.86 43.5768 489.702 41.6468 489.545 40.3076C489.23 38.7321 488.954 37.6292 488.718 36.999C488.324 36.4476 487.891 35.8174 487.418 35.1084C487.024 34.3994 486.512 33.7692 485.882 33.2178C485.252 32.5876 484.464 32.0755 483.519 31.6816C482.573 31.2878 481.47 31.1302 480.21 31.209C478.871 31.2878 477.807 31.6423 477.02 32.2725C476.232 32.9027 475.602 33.651 475.129 34.5176C474.735 35.3053 474.499 36.1719 474.42 37.1172C474.341 38.0625 474.381 38.8896 474.538 39.5986C474.696 40.0713 474.932 40.5833 475.247 41.1348C475.562 41.6074 475.995 42.1195 476.547 42.6709C477.098 43.2223 477.847 43.695 478.792 44.0889C476.98 44.3252 475.365 44.5221 473.947 44.6797C472.529 44.7585 471.308 44.8766 470.284 45.0342C469.103 45.1917 468.078 45.3099 467.212 45.3887C466.345 45.4674 465.321 45.625 464.14 45.8613C463.116 46.0189 461.855 46.2158 460.358 46.4521C458.862 46.6885 457.129 47.0036 455.159 47.3975C455.632 46.846 456.065 46.334 456.459 45.8613C456.853 45.3099 457.207 44.8372 457.522 44.4434C457.838 43.9707 458.153 43.5374 458.468 43.1436ZM476.192 57.2051C474.774 57.2839 473.356 57.6383 471.938 58.2686C470.521 58.82 469.26 59.6471 468.157 60.75C467.054 61.7741 466.109 62.9951 465.321 64.4131C464.612 65.7523 464.258 67.249 464.258 68.9033C464.258 70.5576 464.652 72.015 465.439 73.2754C466.306 74.457 467.409 75.4417 468.748 76.2295C470.166 77.0173 471.663 77.4899 473.238 77.6475C474.893 77.805 476.507 77.6475 478.083 77.1748C479.58 76.6234 480.998 75.7568 482.337 74.5752C483.676 73.3148 484.818 71.9756 485.764 70.5576C486.709 69.0609 487.379 67.6035 487.772 66.1855C488.166 64.6888 488.206 63.4678 487.891 62.5225C487.26 60.4743 485.842 59.0563 483.637 58.2686C481.431 57.402 478.95 57.0475 476.192 57.2051ZM508.569 30.6182C510.145 30.8545 511.563 31.0514 512.823 31.209C514.005 31.2878 515.068 31.3665 516.014 31.4453C517.038 31.5241 518.022 31.5635 518.968 31.5635C519.834 31.5635 520.937 31.5241 522.276 31.4453C523.379 31.3665 524.797 31.2878 526.53 31.209C528.342 31.0514 530.469 30.8545 532.911 30.6182C532.754 30.9333 532.438 31.918 531.966 33.5723C531.493 35.1478 531.021 37.1172 530.548 39.4805C530.075 41.765 529.642 44.3252 529.248 47.1611C528.933 49.9183 528.775 52.6755 528.775 55.4326C528.854 58.111 529.209 60.6712 529.839 63.1133C530.469 65.4766 531.493 67.4066 532.911 68.9033C535.905 71.9756 538.544 73.8268 540.828 74.457C543.191 75.0872 545.24 75.0085 546.973 74.2207C548.706 73.4329 550.124 72.2513 551.227 70.6758C552.329 69.1003 553.117 67.6429 553.59 66.3037C554.771 62.68 555.48 58.8594 555.717 54.8418C555.874 51.3757 555.599 47.5156 554.89 43.2617C554.181 39.0078 552.487 34.6751 549.809 30.2637C551.857 30.4212 553.629 30.5394 555.126 30.6182C556.623 30.6969 557.923 30.7757 559.025 30.8545C560.286 30.9333 561.389 31.012 562.334 31.0908C563.201 31.1696 564.225 31.1696 565.406 31.0908C566.43 31.0908 567.651 31.0514 569.069 30.9727C570.566 30.8151 572.22 30.6576 574.032 30.5C574.347 38.2201 574.623 45.113 574.859 51.1787C575.096 57.1657 575.253 62.4831 575.332 67.1309C575.49 71.6999 575.568 75.6781 575.568 79.0654C575.568 82.374 575.568 85.1706 575.568 87.4551C575.49 92.8906 575.253 96.4749 574.859 98.208C574.229 100.65 573.087 103.092 571.433 105.534C569.857 107.976 567.848 110.143 565.406 112.033C562.964 114.003 560.128 115.499 556.898 116.523C553.747 117.626 550.281 118.02 546.5 117.705C542.798 117.39 539.843 116.878 537.638 116.169C535.511 115.539 533.817 114.79 532.557 113.924C531.375 113.057 530.508 112.151 529.957 111.206C529.484 110.261 529.13 109.276 528.894 108.252C528.657 107.307 528.421 106.401 528.185 105.534C527.948 104.668 527.476 103.919 526.767 103.289C525.9 102.58 524.994 101.871 524.049 101.162C523.182 100.532 522.237 99.9017 521.213 99.2715C520.268 98.6413 519.322 98.1292 518.377 97.7354L543.546 96.3174C542.837 97.2627 542.325 98.1292 542.01 98.917C541.695 99.7048 541.498 100.374 541.419 100.926C541.34 101.635 541.38 102.226 541.537 102.698C541.852 103.644 542.404 104.668 543.191 105.771C544.058 106.952 545.161 107.858 546.5 108.488C547.839 109.197 549.415 109.434 551.227 109.197C553.117 108.961 555.244 107.976 557.607 106.243C559.577 104.746 561.231 102.344 562.57 99.0352C563.673 96.1992 564.54 92.221 565.17 87.1006C565.8 81.9801 565.682 75.2448 564.815 66.8945C563.397 71.7786 561.467 75.5205 559.025 78.1201C556.583 80.7197 554.141 82.6104 551.699 83.792C548.863 85.21 545.909 85.9583 542.837 86.0371C538.741 85.8796 535.235 85.3675 532.32 84.501C529.406 83.5557 527.003 82.2952 525.112 80.7197C523.222 79.1442 521.725 77.293 520.622 75.166C519.598 72.9603 518.85 70.5182 518.377 67.8398C517.904 65.1615 517.668 62.4831 517.668 59.8047C517.668 57.0475 517.668 54.4873 517.668 52.124C517.747 49.7607 517.786 47.6338 517.786 45.7432C517.786 43.7738 517.589 42.1982 517.195 41.0166C516.723 39.835 516.092 38.6533 515.305 37.4717C514.674 36.4476 513.808 35.3447 512.705 34.1631C511.523 32.9027 510.145 31.721 508.569 30.6182Z" fill="black"/>
</svg>
